<?xml version="1.0" encoding="UTF-8"?>
<svg version="1.1" xmlns="http://www.w3.org/2000/svg" width="271" height="120">
<path d="M0 0 C63.36 0 126.72 0 192 0 C192 39.6 192 79.2 192 120 C128.64 120 65.28 120 0 120 C0 80.4 0 40.8 0 0 Z " fill="#FBFBFB" transform="translate(0,0)"/>
<path d="M0 0 C8.77057859 7.21049062 13.26153613 16.19827596 14.4140625 27.40234375 C14.75812694 37.8148201 11.7009587 47.09869235 5.15234375 55.18359375 C3.17578125 57.0859375 3.17578125 57.0859375 -2.82421875 61.0859375 C-2.82421875 48.5459375 -2.82421875 36.0059375 -2.82421875 23.0859375 C-5.46421875 23.0859375 -8.10421875 23.0859375 -10.82421875 23.0859375 C-10.82421875 36.9459375 -10.82421875 50.8059375 -10.82421875 65.0859375 C-11.48421875 65.0859375 -12.14421875 65.0859375 -12.82421875 65.0859375 C-12.82421875 52.2159375 -12.82421875 39.3459375 -12.82421875 26.0859375 C-16.12421875 26.0859375 -19.42421875 26.0859375 -22.82421875 26.0859375 C-22.82421875 29.3859375 -22.82421875 32.6859375 -22.82421875 36.0859375 C-24.47421875 36.0859375 -26.12421875 36.0859375 -27.82421875 36.0859375 C-27.82421875 45.9859375 -27.82421875 55.8859375 -27.82421875 66.0859375 C-28.15421875 66.0859375 -28.48421875 66.0859375 -28.82421875 66.0859375 C-28.82421875 54.8659375 -28.82421875 43.6459375 -28.82421875 32.0859375 C-30.80421875 32.0859375 -32.78421875 32.0859375 -34.82421875 32.0859375 C-34.82421875 29.1159375 -34.82421875 26.1459375 -34.82421875 23.0859375 C-37.46421875 23.0859375 -40.10421875 23.0859375 -42.82421875 23.0859375 C-42.82421875 35.2959375 -42.82421875 47.5059375 -42.82421875 60.0859375 C-49.66641324 56.66484026 -54.90771016 50.78176532 -57.8046875 43.68359375 C-61.00207682 33.46095467 -61.62151238 23.40066712 -56.76171875 13.6484375 C-51.53666332 3.959707 -44.89274307 -1.4886639 -34.82421875 -5.9140625 C-22.60567504 -9.13567209 -10.40335615 -7.05068397 0 0 Z " fill="#202034" transform="translate(119.82421875,19.9140625)"/>
<path d="M0 0 C1.8125 1.5 1.8125 1.5 3 3 C3.33 2.01 3.66 1.02 4 0 C5.32 0 6.64 0 8 0 C8 5.94 8 11.88 8 18 C6.35 17.67 4.7 17.34 3 17 C2.34 17.33 1.68 17.66 1 18 C-1 19 -1 19 -3.625 18.8125 C-6 18 -6 18 -8 15 C-8.30078125 12.1875 -8.30078125 12.1875 -8.3125 9 C-8.32925781 7.948125 -8.34601562 6.89625 -8.36328125 5.8125 C-8 3 -8 3 -6.63671875 1.1484375 C-4.29384902 -0.49548541 -2.795754 -0.4193631 0 0 Z " fill="#DADADD" transform="translate(52,97)"/>
<path d="M0 0 C2.9375 2.0625 2.9375 2.0625 5 5 C5 8.51955419 4.63108355 10.84920059 2.9375 13.9375 C-0.27905997 15.70141999 -3.49385409 15.73924763 -7 15 C-9.5625 12.9375 -9.5625 12.9375 -11 10 C-11 6.1862249 -10.84985071 3.97575452 -8.3125 1.0625 C-5.2135552 -0.3613395 -3.37817188 -0.55153827 0 0 Z " fill="#ECE9CD" transform="translate(94,23)"/>
<path d="M0 0 C0.99 0.103125 1.98 0.20625 3 0.3125 C5.30821663 3.77482494 5.27000989 5.23048316 5.25 9.3125 C5.25515625 10.364375 5.2603125 11.41625 5.265625 12.5 C5 15.3125 5 15.3125 3 18.3125 C0 18.625 0 18.625 -3 18.3125 C-5 16.3125 -5 16.3125 -5.265625 13.125 C-5.26046875 11.866875 -5.2553125 10.60875 -5.25 9.3125 C-5.25515625 8.054375 -5.2603125 6.79625 -5.265625 5.5 C-4.91243274 1.26169285 -4.24294246 0.44197317 0 0 Z " fill="#1F1F34" transform="translate(151,96.6875)"/>
<path d="M0 0 C1.32 0 2.64 0 4 0 C4 2.31 4 4.62 4 7 C5.32 7 6.64 7 8 7 C8 4.69 8 2.38 8 0 C8.99 0 9.98 0 11 0 C11 5.94 11 11.88 11 18 C9.68 18 8.36 18 7 18 C7 15.69 7 13.38 7 11 C6.01 11 5.02 11 4 11 C4 13.31 4 15.62 4 18 C2.68 18 1.36 18 0 18 C0 12.06 0 6.12 0 0 Z " fill="#39394B" transform="translate(133,97)"/>
<path d="M0 0 C1.65 0 3.3 0 5 0 C7.14468649 2.14468649 6.7395788 6.58444894 7.0625 9.5625 C7.15337891 10.36880859 7.24425781 11.17511719 7.33789062 12.00585938 C7.56247449 14.00347377 7.78173236 16.0016856 8 18 C7.01 18 6.02 18 5 18 C5 17.34 5 16.68 5 16 C3.68 16 2.36 16 1 16 C1 16.66 1 17.32 1 18 C0.01 18 -0.98 18 -2 18 C-1.34 12.06 -0.68 6.12 0 0 Z " fill="#1F1F33" transform="translate(110,97)"/>
<path d="M0 0 C0.99 0.103125 1.98 0.20625 3 0.3125 C5 3.3125 5 3.3125 5 7.3125 C4.01 7.3125 3.02 7.3125 2 7.3125 C1.67 6.3225 1.34 5.3325 1 4.3125 C0.01 3.9825 -0.98 3.6525 -2 3.3125 C-0.50902342 7.1077131 1.75700849 8.92292731 5 11.3125 C4.25 17.0625 4.25 17.0625 2 19.3125 C-1.29714793 18.98278521 -2.6226839 18.6898161 -5 16.3125 C-5 14.9925 -5 13.6725 -5 12.3125 C-4.01 12.3125 -3.02 12.3125 -2 12.3125 C-2 13.3025 -2 14.2925 -2 15.3125 C-1.01 14.9825 -0.02 14.6525 1 14.3125 C1.33 13.6525 1.66 12.9925 2 12.3125 C0.824375 11.879375 0.824375 11.879375 -0.375 11.4375 C-3 10.3125 -3 10.3125 -5 8.3125 C-5.25 5.3125 -5.25 5.3125 -5 2.3125 C-3 0.3125 -3 0.3125 0 0 Z " fill="#2A2A3D" transform="translate(92,96.6875)"/>
<path d="M0 0 C2.97 0 5.94 0 9 0 C9 0.99 9 1.98 9 3 C7.35 3 5.7 3 4 3 C4 4.32 4 5.64 4 7 C5.65 7 7.3 7 9 7 C9 7.99 9 8.98 9 10 C7.02 10 5.04 10 3 10 C3 11.65 3 13.3 3 15 C4.98 15 6.96 15 9 15 C9 16.32 9 17.64 9 19 C6.03 19 3.06 19 0 19 C0 12.73 0 6.46 0 0 Z " fill="#373749" transform="translate(29,97)"/>
<path d="M0 0 C0.99 0 1.98 0 3 0 C3 2.31 3 4.62 3 7 C4.32 7 5.64 7 7 7 C7 4.69 7 2.38 7 0 C7.99 0 8.98 0 10 0 C10 5.94 10 11.88 10 18 C9.01 18 8.02 18 7 18 C7 15.36 7 12.72 7 10 C5.68 10 4.36 10 3 10 C3 12.64 3 15.28 3 18 C2.01 18 1.02 18 0 18 C0 12.06 0 6.12 0 0 Z " fill="#1C1C30" transform="translate(17,97)"/>
<path d="M0 0 C2.97 0 5.94 0 9 0 C9 0.99 9 1.98 9 3 C7.02 3 5.04 3 3 3 C3 4.32 3 5.64 3 7 C4.98 7 6.96 7 9 7 C9 7.99 9 8.98 9 10 C7.02 10 5.04 10 3 10 C3 11.65 3 13.3 3 15 C4.98 15 6.96 15 9 15 C9 16.32 9 17.64 9 19 C6.03 19 3.06 19 0 19 C0 12.73 0 6.46 0 0 Z " fill="#343447" transform="translate(168,97)"/>
<path d="M0 0 C2 2 2 2 2 6 C1.34 6 0.68 6 0 6 C-0.33 5.34 -0.66 4.68 -1 4 C-1.99 4 -2.98 4 -4 4 C-4 7.3 -4 10.6 -4 14 C-3.01 14.33 -2.02 14.66 -1 15 C-1 14.01 -1 13.02 -1 12 C0.32 12 1.64 12 3 12 C2.60000283 14.31998359 2.09432121 15.86323424 0.75 17.8125 C-1 19 -1 19 -3.5625 18.875 C-6 18 -6 18 -8 15 C-8.30078125 12.1875 -8.30078125 12.1875 -8.3125 9 C-8.32925781 7.948125 -8.34601562 6.89625 -8.36328125 5.8125 C-8 3 -8 3 -6.640625 1.14453125 C-4.329959 -0.46743337 -2.75116324 -0.35271324 0 0 Z " fill="#2D2D40" transform="translate(52,97)"/>
<path d="M0 0 C3.3 0 6.6 0 10 0 C10 0.99 10 1.98 10 3 C9.01 3 8.02 3 7 3 C7 7.95 7 12.9 7 18 C5.68 18 4.36 18 3 18 C3 13.05 3 8.1 3 3 C2.01 3 1.02 3 0 3 C0 2.01 0 1.02 0 0 Z " fill="#353547" transform="translate(98,97)"/>
<path d="M0 0 C0.99 0 1.98 0 3 0 C3.66 1.32 4.32 2.64 5 4 C5.33 2.68 5.66 1.36 6 0 C7.32 0.33 8.64 0.66 10 1 C9.525625 2.134375 9.05125 3.26875 8.5625 4.4375 C6.8651766 8.91298952 6.31905895 13.24712186 6 18 C5.01 18 4.02 18 3 18 C2.92652344 17.00419922 2.92652344 17.00419922 2.8515625 15.98828125 C2.45284744 11.27931889 1.97419246 7.34322342 0 3 C0 2.01 0 1.02 0 0 Z " fill="#1F1F33" transform="translate(118,97)"/>
<path d="M0 0 C0.99 0 1.98 0 3 0 C3.66 1.32 4.32 2.64 5 4 C5.33 2.68 5.66 1.36 6 0 C7.32 0.33 8.64 0.66 10 1 C9.525625 2.134375 9.05125 3.26875 8.5625 4.4375 C6.8651766 8.91298952 6.31905895 13.24712186 6 18 C5.01 18 4.02 18 3 18 C2.92652344 17.05640625 2.92652344 17.05640625 2.8515625 16.09375 C2.36564801 10.53086686 1.49446374 5.38006948 0 0 Z " fill="#212135" transform="translate(72,97)"/>
<path d="M0 0 C3.3 0 6.6 0 10 0 C10 0.99 10 1.98 10 3 C8.68 3 7.36 3 6 3 C6 7.95 6 12.9 6 18 C5.01 18 4.02 18 3 18 C3 13.05 3 8.1 3 3 C2.01 3 1.02 3 0 3 C0 2.01 0 1.02 0 0 Z " fill="#242438" transform="translate(157,97)"/>
<path d="M0 0 C3.3 0 6.6 0 10 0 C10 0.99 10 1.98 10 3 C9.01 3 8.02 3 7 3 C7 7.95 7 12.9 7 18 C6.01 18 5.02 18 4 18 C4 13.05 4 8.1 4 3 C2.68 3 1.36 3 0 3 C0 2.01 0 1.02 0 0 Z " fill="#222236" transform="translate(61,97)"/>
<path d="M0 0 C3.3 0 6.6 0 10 0 C10 0.99 10 1.98 10 3 C9.01 3 8.02 3 7 3 C7 7.95 7 12.9 7 18 C6.01 18 5.02 18 4 18 C4 13.05 4 8.1 4 3 C2.68 3 1.36 3 0 3 C0 2.01 0 1.02 0 0 Z " fill="#1B1B30" transform="translate(5,97)"/>
<path d="M0 0 C0.99 0 1.98 0 3 0 C3 4.95 3 9.9 3 15 C4.65 15 6.3 15 8 15 C8 15.99 8 16.98 8 18 C5.36 18 2.72 18 0 18 C0 12.06 0 6.12 0 0 Z " fill="#212135" transform="translate(180,97)"/>
<path d="M0 0 C0.33 0 0.66 0 1 0 C1 5.94 1 11.88 1 18 C0.34 17.34 -0.32 16.68 -1 16 C-3.32275177 15.59952556 -5.65739357 15.2602896 -8 15 C-8 13.35 -8 11.7 -8 10 C-5.36 10 -2.72 10 0 10 C0 6.7 0 3.4 0 0 Z " fill="#CDCDD1" transform="translate(179,97)"/>
<path d="M0 0 C0.99 0 1.98 0 3 0 C3 5.94 3 11.88 3 18 C2.01 18 1.02 18 0 18 C0 12.06 0 6.12 0 0 Z " fill="#222236" transform="translate(57,97)"/>
<path d="M0 0 C1.66611905 -0.042721 3.33382885 -0.04063832 5 0 C6 1 6 1 6.0625 4.0625 C6.041875 5.031875 6.02125 6.00125 6 7 C5.34 7 4.68 7 4 7 C4 8.98 4 10.96 4 13 C3.34 13 2.68 13 2 13 C1.67 10.69 1.34 8.38 1 6 C0.67 6 0.34 6 0 6 C0 4.02 0 2.04 0 0 Z " fill="#565665" transform="translate(110,97)"/>
<path d="M0 0 C1.32 0.33 2.64 0.66 4 1 C4 4.3 4 7.6 4 11 C2.68 11.33 1.36 11.66 0 12 C0 8.04 0 4.08 0 0 Z " fill="#F1F1F2" transform="translate(149,100)"/>
<path d="M0 0 C0 2.64 0 5.28 0 8 C-0.66 8 -1.32 8 -2 8 C-2 7.01 -2 6.02 -2 5 C-3.98 5 -5.96 5 -8 5 C-8 3.68 -8 2.36 -8 1 C-1.125 0 -1.125 0 0 0 Z " fill="#EAEAEC" transform="translate(179,99)"/>
<path d="M0 0 C2.50037734 2.17424117 3.43628586 3.73045798 4 7 C1.69 7 -0.62 7 -3 7 C-2.01 4.69 -1.02 2.38 0 0 Z " fill="#EFEFF0" transform="translate(112,34)"/>
<path d="M0 0 C1.32 0.33 2.64 0.66 4 1 C3.34 2.98 2.68 4.96 2 7 C0.68 6.67 -0.64 6.34 -2 6 C-1.34 4.02 -0.68 2.04 0 0 Z " fill="#38384A" transform="translate(124,97)"/>
<path d="M0 0 C1.32 0.33 2.64 0.66 4 1 C3.34 2.98 2.68 4.96 2 7 C1.01 7 0.02 7 -1 7 C-1 4.37886292 -0.68707555 2.49064888 0 0 Z " fill="#3D3D4E" transform="translate(78,97)"/>
<path d="M0 0 C0.33 0 0.66 0 1 0 C1 2.64 1 5.28 1 8 C1.66 8.33 2.32 8.66 3 9 C2.01 9 1.02 9 0 9 C-2 6 -2 6 -1.6875 3.375 C-1 1 -1 1 0 0 Z " fill="#323245" transform="translate(111,102)"/>
<path d="M0 0 C1.32 0.33 2.64 0.66 4 1 C4.33 2.65 4.66 4.3 5 6 C2.5 4.6875 2.5 4.6875 0 3 C0 2.01 0 1.02 0 0 Z " fill="#F1F1F3" transform="translate(90,100)"/>
<path d="M0 0 C0.99 0 1.98 0 3 0 C3.33 1.65 3.66 3.3 4 5 C3.01 5.33 2.02 5.66 1 6 C0.67 4.02 0.34 2.04 0 0 Z " fill="#343447" transform="translate(118,97)"/>
<path d="M0 0 C1.32 0 2.64 0 4 0 C4 1.32 4 2.64 4 4 C2.68 4 1.36 4 0 4 C0 2.68 0 1.36 0 0 Z " fill="#E51A1A" transform="translate(266,14)"/>
</svg>
